<svg xmlns="http://www.w3.org/2000/svg" xmlns:xlink="http://www.w3.org/1999/xlink" viewBox="0 0 329.32 329.44"><defs><linearGradient id="未命名的渐变_5" x1="53.36" y1="-1.74" x2="251.38" y2="294.23" gradientUnits="userSpaceOnUse"><stop offset="0" stop-color="#feae18"/><stop offset="1" stop-color="#f85b1c"/></linearGradient><linearGradient id="未命名的渐变_5-2" x1="41.88" y1="6.06" x2="239.9" y2="302.03" xlink:href="#未命名的渐变_5"/></defs><g id="图层_2" data-name="图层 2"><g id="图层_1-2" data-name="图层 1"><path d="M164.84,329.43q-45.93,0-91.84,0c-23,0-41.58-9.14-56.27-26.51A70.29,70.29,0,0,1,.41,265.21a58.08,58.08,0,0,1-.37-7Q0,166,0,73.71c0-27.31,12.16-48.18,34.77-63A65.69,65.69,0,0,1,71.53.05Q151.46,0,231.4,0c9.33,0,18.67-.12,28,.06a67.82,67.82,0,0,1,42.07,15.33C316,27,325,41.94,328.26,60.28a65.27,65.27,0,0,1,1,11q.09,93.64,0,187.31c-.05,19.35-7.64,35.82-21.1,49.58a70.06,70.06,0,0,1-35.2,19.62,66.15,66.15,0,0,1-14.71,1.65Zm15-120.7,1.64,2.5a56,56,0,0,0,11.76,13.23c2.38,1.92,4.73,1.83,7.14-.08.51-.4,1-.84,1.49-1.27Q210,216.06,218.13,209c2.43-2.11,2.75-4.5.85-7.13-1.53-2.12-3.11-4.2-4.61-6.34A22.52,22.52,0,0,1,210,182.62c-.11-8.91-.17-17.82-.29-26.73-.15-11.43.06-22.87-.6-34.27-.77-13.26-7.65-22.8-19.61-28.63a61.9,61.9,0,0,0-25.86-5.87c-12.1-.34-23.84,1.3-34.82,6.74-12.52,6.2-20.14,16.27-23.23,29.81-.87,3.83.67,5.71,4.58,6.1,6.54.66,13.09,1.3,19.62,2.14,4.76.62,6.61-.4,7.71-5.1,1.41-6,5.21-10.07,11-12.23A24.43,24.43,0,0,1,160,113.35c7.76.91,13.57,5.19,14.23,13.88.3,4.09.22,8.2.35,12.3,0,.92-.45,1.05-1.19,1.12-5.86.54-11.72,1-17.56,1.68-9.53,1-19,2.58-27.91,6.24-10,4.1-18,10.59-22.79,20.47-5.35,11.08-5.73,22.67-2.4,34.36,3,10.55,10,17.46,20.35,21,5.86,2,12,2.29,18.1,2.24,14.2-.14,26.51-4.71,36.24-15.38C178.14,210.46,178.91,209.68,179.81,208.73ZM160.44,268.3a157.14,157.14,0,0,0,27.62-2.47A149.79,149.79,0,0,0,226,254a108.67,108.67,0,0,0,22.84-14c1.5-1.24,2-2.62,1.39-3.87a3.51,3.51,0,0,0-4.24-1.55,8.55,8.55,0,0,0-.92.34c-2.84,1.17-5.66,2.4-8.53,3.51A199.11,199.11,0,0,1,73,230.39c-5.89-3-11.52-6.51-17.26-9.81-1.34-.77-2.55-.74-3.29.18s-.49,2,.53,3a155.14,155.14,0,0,0,40,28.6C113.93,262.63,136.08,267.87,160.44,268.3ZM286.13,96.05a6.32,6.32,0,0,0-1.34-1c-.94-.27-1.92-.4-2.86-.66-7.67-2.06-14.08-5.85-17.38-13.45-1.28-3-1.93-6.21-2.92-9.31a4.86,4.86,0,0,0-.91-1.21,4.82,4.82,0,0,0-.87,1.24c-.37,1.3-.59,2.64-.92,4-2.12,8.39-6.94,14.46-15.22,17.45-2.19.79-4.47,1.28-6.69,2-.43.13-.76.56-1.13.85.36.3.67.73,1.08.85,1.16.34,2.36.51,3.53.82,8.76,2.25,14.95,7.37,17.82,16.11.64,2,1.05,4,1.63,5.93a4.2,4.2,0,0,0,.82,1.15c.32-.39.81-.73.94-1.18.4-1.29.6-2.64,1-3.94,2.28-7.86,6.76-13.88,14.65-16.83,2.34-.88,4.83-1.36,7.24-2A12.25,12.25,0,0,0,286.13,96.05ZM245.49,226.48c2.77.16,5.38.21,8,.49,5.19.56,6.45,2.32,5.8,7.52A71.09,71.09,0,0,1,255,250.26c-.72,2-1.56,3.89-2.2,5.89a2.07,2.07,0,0,0,.38,1.84,2.39,2.39,0,0,0,1.91,0,4.31,4.31,0,0,0,1.56-1.14c8.88-9,12.85-19.91,12.71-32.4,0-3.15-1-4.23-4-5.09a44.85,44.85,0,0,0-19.56-.72,35.51,35.51,0,0,0-15.16,5.74c-1,.69-2.24,1.48-1.74,2.88s2,.87,3.07.75C236.55,227.52,241.08,227,245.49,226.48ZM226,86.81a5.67,5.67,0,0,0,.79-1,12.54,12.54,0,0,0,.34-1.5c1.73-8.08,6.56-13.09,14.68-14.84a12.59,12.59,0,0,0,1.64-.37c.29-.12.49-.46.73-.7-.23-.21-.42-.52-.69-.61-.56-.2-1.17-.27-1.76-.43-6.14-1.6-11-4.72-13.35-11-.61-1.66-1-3.4-1.51-5.09a6.36,6.36,0,0,0-.78-1.32,7.84,7.84,0,0,0-.88,1.38c-.93,2.57-1.53,5.31-2.77,7.71-2.56,4.92-7.19,7.08-12.32,8.41a9.57,9.57,0,0,0-2,1.09,11.47,11.47,0,0,0,2.06.85c7,1.55,12,5.32,14.25,12.36.39,1.24.62,2.53,1,3.79A7.83,7.83,0,0,0,226,86.81Zm20,33.75-.51,0A12.59,12.59,0,0,0,245,122c-1,5.48-4.21,8.89-9.7,10.1a7.13,7.13,0,0,0-1.26.52l0,.37c.46.17.92.34,1.38.49a28.86,28.86,0,0,1,3.18,1c3.38,1.56,5.24,4.35,6.16,7.86.19.7.45,1.38.68,2.07H246c.64-2.9,1.49-5.69,3.62-7.86s5-2.9,7.89-3.47l0-.7a14.68,14.68,0,0,1-7.91-3.69C247.39,126.47,246.74,123.49,246,120.56Z" style="fill:url(#未命名的渐变_5)"/><path d="M179.81,208.73c-.9,1-1.67,1.73-2.41,2.55-9.73,10.67-22,15.24-36.24,15.38-6.14.05-12.24-.21-18.1-2.24-10.32-3.56-17.34-10.47-20.35-21-3.33-11.69-2.95-23.28,2.4-34.36,4.78-9.88,12.77-16.37,22.79-20.47,8.94-3.66,18.38-5.19,27.91-6.24,5.84-.65,11.7-1.14,17.56-1.68.74-.07,1.22-.2,1.19-1.12-.13-4.1-.05-8.21-.35-12.3-.66-8.69-6.47-13-14.23-13.88a24.43,24.43,0,0,0-11.45,1.23c-5.83,2.16-9.63,6.24-11,12.23-1.1,4.7-3,5.72-7.71,5.1-6.53-.84-13.08-1.48-19.62-2.14-3.91-.39-5.45-2.27-4.58-6.1,3.09-13.54,10.71-23.61,23.23-29.81,11-5.44,22.72-7.08,34.82-6.74A61.9,61.9,0,0,1,189.49,93c12,5.83,18.84,15.37,19.61,28.63.66,11.4.45,22.84.6,34.27.12,8.91.18,17.82.29,26.73a22.52,22.52,0,0,0,4.38,12.91c1.5,2.14,3.08,4.22,4.61,6.34,1.9,2.63,1.58,5-.85,7.13q-8.16,7-16.29,14.11c-.49.43-1,.87-1.49,1.27-2.41,1.91-4.76,2-7.14.08a56,56,0,0,1-11.76-13.23ZM174.3,160c-2.25,0-4.53-.11-6.79,0A55.56,55.56,0,0,0,152,162.81c-4.77,1.71-8.93,4.26-11.67,8.66a24.78,24.78,0,0,0-3.1,19.11c1.47,6.56,6.08,10.4,12.75,11.14a21,21,0,0,0,21.08-12.25,31,31,0,0,0,3.17-12.23C174.44,171.49,174.3,165.72,174.3,160Z" style="fill:#fff"/><path d="M160.44,268.3c-24.36-.43-46.51-5.67-67.43-16a155.14,155.14,0,0,1-40-28.6c-1-1-1.21-2.11-.53-3s1.95-.95,3.29-.18c5.74,3.3,11.37,6.81,17.26,9.81a199.11,199.11,0,0,0,163.55,8.05c2.87-1.11,5.69-2.34,8.53-3.51a8.55,8.55,0,0,1,.92-.34,3.51,3.51,0,0,1,4.24,1.55c.61,1.25.11,2.63-1.39,3.87A108.67,108.67,0,0,1,226,254a149.79,149.79,0,0,1-37.95,11.79A157.14,157.14,0,0,1,160.44,268.3Z" style="fill:#fff"/><path d="M286.13,96.05a12.25,12.25,0,0,1-1.55.74c-2.41.69-4.9,1.17-7.24,2-7.89,3-12.37,9-14.65,16.83-.38,1.3-.58,2.65-1,3.94-.13.45-.62.79-.94,1.18a4.2,4.2,0,0,1-.82-1.15c-.58-2-1-4-1.63-5.93-2.87-8.74-9.06-13.86-17.82-16.11-1.17-.31-2.37-.48-3.53-.82-.41-.12-.72-.55-1.08-.85.37-.29.7-.72,1.13-.85,2.22-.69,4.5-1.18,6.69-2,8.28-3,13.1-9.06,15.22-17.45.33-1.31.55-2.65.92-4a4.82,4.82,0,0,1,.87-1.24,4.86,4.86,0,0,1,.91,1.21c1,3.1,1.64,6.34,2.92,9.31,3.3,7.6,9.71,11.39,17.38,13.45.94.26,1.92.39,2.86.66A6.32,6.32,0,0,1,286.13,96.05Z" style="fill:#fff"/><path d="M245.49,226.48c-4.41.5-8.94,1-13.48,1.52-1.1.12-2.54.73-3.07-.75s.75-2.19,1.74-2.88a35.51,35.51,0,0,1,15.16-5.74,44.85,44.85,0,0,1,19.56.72c3,.86,4,1.94,4,5.09.14,12.49-3.83,23.42-12.71,32.4a4.31,4.31,0,0,1-1.56,1.14,2.39,2.39,0,0,1-1.91,0,2.07,2.07,0,0,1-.38-1.84c.64-2,1.48-3.92,2.2-5.89a71.09,71.09,0,0,0,4.23-15.77c.65-5.2-.61-7-5.8-7.52C250.87,226.69,248.26,226.64,245.49,226.48Z" style="fill:#fff"/><path d="M226,86.81a7.83,7.83,0,0,1-.64-1.25c-.35-1.26-.58-2.55-1-3.79-2.21-7-7.26-10.81-14.25-12.36a11.47,11.47,0,0,1-2.06-.85,9.57,9.57,0,0,1,2-1.09c5.13-1.33,9.76-3.49,12.32-8.41,1.24-2.4,1.84-5.14,2.77-7.71a7.84,7.84,0,0,1,.88-1.38,6.36,6.36,0,0,1,.78,1.32c.53,1.69.9,3.43,1.51,5.09,2.3,6.25,7.21,9.37,13.35,11,.59.16,1.2.23,1.76.43.27.09.46.4.69.61-.24.24-.44.58-.73.7a12.59,12.59,0,0,1-1.64.37c-8.12,1.75-12.95,6.76-14.68,14.84a12.54,12.54,0,0,1-.34,1.5A5.67,5.67,0,0,1,226,86.81Z" style="fill:#fff"/><path d="M246,120.56c.78,2.93,1.43,5.91,3.7,8.12a14.68,14.68,0,0,0,7.91,3.69l0,.7c-2.92.57-5.75,1.3-7.89,3.47s-3,5-3.62,7.86h-.52c-.23-.69-.49-1.37-.68-2.07-.92-3.51-2.78-6.3-6.16-7.86a28.86,28.86,0,0,0-3.18-1c-.46-.15-.92-.32-1.38-.49l0-.37a7.13,7.13,0,0,1,1.26-.52c5.49-1.21,8.67-4.62,9.7-10.1a12.59,12.59,0,0,1,.42-1.36Z" style="fill:#fff"/><path d="M174.3,160c0,5.69.14,11.46-.05,17.21a31,31,0,0,1-3.17,12.23A21,21,0,0,1,150,201.72c-6.67-.74-11.28-4.58-12.75-11.14a24.78,24.78,0,0,1,3.1-19.11c2.74-4.4,6.9-6.95,11.67-8.66a55.56,55.56,0,0,1,15.49-2.76C169.77,159.92,172.05,160,174.3,160Z" style="fill:url(#未命名的渐变_5-2)"/></g></g></svg>