<svg xmlns="http://www.w3.org/2000/svg" viewBox="0 0 100 100" width="100" height="100">
  <defs>
    <linearGradient id="brandGrad" x1="0" y1="0" x2="1" y2="1">
      <stop offset="0" stop-color="#ff8a1f" />
      <stop offset="1" stop-color="#ff6a16" />
    </linearGradient>
  </defs>
  <rect width="100" height="100" rx="23" fill="url(#brandGrad)" />
  <g transform="translate(8 6) scale(0.84)">
    <text x="47" y="72" text-anchor="middle" font-family="'Arial Black', Arial, sans-serif" font-size="68" font-weight="900" fill="#fff">a</text>
    <path d="M20 75c18 15 46 14 64-3" stroke="#fff" stroke-width="7" stroke-linecap="round" fill="none" />
    <path d="M84 72l5-12-12 4z" fill="#fff" />
    <path d="M71 14c0 9 4 13 13 13-9 0-13 4-13 13 0-9-4-13-13-13 9 0 13-4 13-13z" fill="#fff" />
    <path d="M90 35c0 5 2 7 7 7-5 0-7 2-7 7 0-5-2-7-7-7 5 0 7-2 7-7z" fill="#fff" fill-opacity="0.92" />
  </g>
</svg>
