<svg xmlns="http://www.w3.org/2000/svg" viewBox="0 0 408.78 66.02"><g id="图层_2" data-name="图层 2"><g id="图层_1-2" data-name="图层 1"><path d="M63.2,2.82H31.63l0-.07,0,.07H0L15.78,34.39,0,66H31.57l0,.07,0-.07H63.2L47.42,34.39ZM58.11,6,45.66,30.86,33.21,6ZM23.32,26.36,35.61,51l-4,8L19.3,34.39Zm1.75-3.51L31.6,9.79,43.9,34.38,37.37,47.44ZM5.09,6H30L23.31,19.33h0L17.54,30.87Zm0,56.85,12.46-24.9L30,62.81Zm28.12,0,4.16-8.33,4.17,8.33Zm24.9,0h-13L39.13,51,45.66,37.9Z" style="fill:#200628"/><path d="M100.43,15.29l12,36h.44l12.52-38.72-5.45-.36V4.65H140.5v7.24l-2.95.27a2.5,2.5,0,0,0-1.7.67,6.38,6.38,0,0,0-1.08,2l-16.9,49.27H106.25L88,12.52l-5.1-.27V4.65H106v7.24l-3,.27c-1.85.12-2.78.84-2.78,2.15A3.1,3.1,0,0,0,100.43,15.29Z" style="fill:#200628"/><path d="M160.08,19.14V56.7l5.1.27v7.15H143.89v-6.8l3-.26a2.59,2.59,0,0,0,2.59-2.87V29.33a3.15,3.15,0,0,0-.49-2,2.3,2.3,0,0,0-1.75-.54l-3.13-.18V19.14ZM148.81,11.4a6.26,6.26,0,0,1-1.87-4.69A6.49,6.49,0,0,1,153.73,0a6.75,6.75,0,0,1,5,1.92,6.52,6.52,0,0,1,1.92,4.79,6.19,6.19,0,0,1-1.92,4.69,6.94,6.94,0,0,1-5,1.84A6.77,6.77,0,0,1,148.81,11.4Z" style="fill:#200628"/><path d="M193.8,25.93a15,15,0,0,0-5.19-.8,7.82,7.82,0,0,0-4.87,1.39,4.1,4.1,0,0,0-1.84,3.39,6.14,6.14,0,0,0,.67,3.13,5.57,5.57,0,0,0,2.1,1.93A27.52,27.52,0,0,0,190,37c2.09.57,3.64,1,4.65,1.34a28.19,28.19,0,0,1,3.8,1.65,11.22,11.22,0,0,1,3.44,2.51A11.85,11.85,0,0,1,205.06,51a12.57,12.57,0,0,1-4.87,10.51q-4.87,3.81-12.39,3.8-10.91,0-16.45-2.77V50.08l8.05-.62v4.29q0,3.93,7.51,3.93t7.51-5.45A4.29,4.29,0,0,0,193.13,49a7.36,7.36,0,0,0-2.55-1.7q-1.26-.45-3-.9c-1.16-.29-2.3-.59-3.4-.89a34.41,34.41,0,0,1-3.58-1.21,26.57,26.57,0,0,1-4.24-2.19q-4.56-3-4.56-9.88t4.91-10.69A19.85,19.85,0,0,1,189.1,17.8a33.51,33.51,0,0,1,14.8,3.57V32.11l-8.05.62V29A3,3,0,0,0,193.8,25.93Z" style="fill:#200628"/><path d="M219.73,9.66h5.81v9.48h11.9l-.9,7.51h-11V50.17c0,2.62.48,4.46,1.43,5.5a5.74,5.74,0,0,0,4.43,1.57,11.46,11.46,0,0,0,6-1.88l2.68,6.88q-4.47,3.13-11.36,3.13a19.58,19.58,0,0,1-6.8-1,12.3,12.3,0,0,1-4.11-2.28,8,8,0,0,1-2.06-3.66,19,19,0,0,1-.8-3.8c-.06-.93-.09-2.28-.09-4.07V26.65h-6.35l.9-6.53a8.73,8.73,0,0,0,6.34-3A26.24,26.24,0,0,0,219.73,9.66Z" style="fill:#200628"/><path d="M283.67,20.93V54.19a3,3,0,0,0,.49,2,2.56,2.56,0,0,0,1.75.63l2.86.18v7.15H274.55V58.93l-.27-.09A14.11,14.11,0,0,1,262,65.28q-9.12,0-13.5-5.81t-4.39-15.92q0-12.15,5.91-19t17.7-6.79A45.06,45.06,0,0,1,283.67,20.93Zm-10.37,29V26.74a16.62,16.62,0,0,0-6.89-1.16q-6,0-8.67,4.83t-2.69,12.78q0,14.49,9.3,14.49a9,9,0,0,0,6.44-2.37A7.27,7.27,0,0,0,273.3,49.9Z" style="fill:#200628"/><path d="M293.69,26.38V19.14H308.8V25a15.87,15.87,0,0,1,13.73-7.15q8.72,0,11.76,7.15a15.75,15.75,0,0,1,13.59-7.15q6.44,0,9.93,3.89t3.49,11.67V56.7l5.09.27v7.15H345.11v-6.8l2.95-.26A3.33,3.33,0,0,0,350,56.3a3.24,3.24,0,0,0,.67-2.11V35.68a18.08,18.08,0,0,0-1.11-7.29c-.75-1.58-2.49-2.37-5.24-2.37a7.92,7.92,0,0,0-6.3,2.51,9.82,9.82,0,0,0-2.19,6.71V56.7l4.92.27v7.15H319.62v-6.8l2.95-.26a3.6,3.6,0,0,0,2-.76,3,3,0,0,0,.63-2.2V35.68a18.05,18.05,0,0,0-1.12-7.29Q322.93,26,318.77,26a7.71,7.71,0,0,0-6.3,2.6,9.76,9.76,0,0,0-2.15,6.44V56.7l4.83.27v7.15H294v-6.8l3-.26a3.57,3.57,0,0,0,2-.76,3,3,0,0,0,.63-2.2h.09V29.42a3.4,3.4,0,0,0-.49-2.1,2.43,2.43,0,0,0-1.75-.67Z" style="fill:#200628"/><path d="M408.78,64.12H372.29v-6.8l23-30.22H384c-1.25,0-2,.24-2.37.71a4.21,4.21,0,0,0-.49,2.33v3.13l-8.41-.63V19.14h35.59v6.08L385.08,56.07h12.7c1.73,0,2.6-1,2.6-3V49.28l8.4.62Z" style="fill:#200628"/></g></g></svg>