<svg xmlns="http://www.w3.org/2000/svg" viewBox="0 0 177.41 166.24"><g id="图层_2" data-name="图层 2"><g id="图层_1-2" data-name="图层 1"><path d="M141.62.11H87L87,0,86.9.11H32.29L59.6,54.72,32.29,109.33H86.9l.06.11.05-.11h54.61l-27.3-54.61Zm-8.81,5.44L111.27,48.63,89.73,5.55ZM72.62,40.85,93.9,83.39,87,97.27,65.69,54.73Zm3-6.09L87,12.17l21.27,42.55L96.94,77.3ZM41.1,5.55H84.18L72.62,28.67h0l-10,20Zm0,98.34L62.64,60.81l21.54,43.08Zm48.63,0,7.21-14.41,7.21,14.41Zm43.08,0H110.23L100,83.39l11.29-22.58Z" style="fill:#fff"/><path d="M9.54,139l6.53,19.62h.24l6.82-21.09-3-.19v-4.14H31.35v3.95l-1.6.14a1.36,1.36,0,0,0-.93.37,3.42,3.42,0,0,0-.58,1.09L19,165.56H12.71L2.78,137.47,0,137.32v-4.14H12.56v3.95l-1.61.14q-1.5.1-1.5,1.17A1.9,1.9,0,0,0,9.54,139Z" style="fill:#fff"/><path d="M42,141.07v20.45l2.77.14v3.9H33.2v-3.7l1.61-.15a1.4,1.4,0,0,0,1.41-1.56V146.62A1.69,1.69,0,0,0,36,145.5a1.21,1.21,0,0,0-1-.29l-1.7-.1v-4Zm-6.14-4.21a3.44,3.44,0,0,1-1-2.56,3.54,3.54,0,0,1,3.7-3.65,3.65,3.65,0,0,1,2.7,1,3.52,3.52,0,0,1,1.05,2.6,3.38,3.38,0,0,1-1.05,2.56,3.78,3.78,0,0,1-2.7,1A3.69,3.69,0,0,1,35.88,136.86Z" style="fill:#fff"/><path d="M60.37,144.77a8.11,8.11,0,0,0-2.82-.44,4.26,4.26,0,0,0-2.66.76,2.26,2.26,0,0,0-1,1.85,3.35,3.35,0,0,0,.37,1.7,3,3,0,0,0,1.14,1.05,15,15,0,0,0,2.92,1.09c1.14.31,2,.55,2.54.73a15.47,15.47,0,0,1,2.07.9,6.29,6.29,0,0,1,1.87,1.37,6.43,6.43,0,0,1,1.7,4.62,6.84,6.84,0,0,1-2.65,5.72,10.64,10.64,0,0,1-6.74,2.07q-5.94,0-9-1.51v-6.77l4.38-.34v2.34q0,2.15,4.09,2.14t4.09-3a2.33,2.33,0,0,0-.71-1.75,4,4,0,0,0-1.38-.92,16.43,16.43,0,0,0-1.63-.49l-1.85-.49a16.64,16.64,0,0,1-2-.66,14.2,14.2,0,0,1-2.31-1.19q-2.49-1.61-2.49-5.38a6.92,6.92,0,0,1,2.68-5.82,10.81,10.81,0,0,1,6.74-2,18.2,18.2,0,0,1,8.06,1.95v5.84l-4.38.34v-2.05A1.62,1.62,0,0,0,60.37,144.77Z" style="fill:#fff"/><path d="M74.49,135.91h3.16v5.16h6.48l-.49,4.09h-6V158a4.46,4.46,0,0,0,.78,3,3.1,3.1,0,0,0,2.41.85,6.25,6.25,0,0,0,3.29-1l1.46,3.75a10.61,10.61,0,0,1-6.19,1.7,10.79,10.79,0,0,1-3.7-.56,6.69,6.69,0,0,1-2.23-1.24,4.36,4.36,0,0,1-1.12-2,9.77,9.77,0,0,1-.44-2.07c0-.5,0-1.24,0-2.21v-13H68.4l.49-3.56A4.72,4.72,0,0,0,72.35,140,14.58,14.58,0,0,0,74.49,135.91Z" style="fill:#fff"/><path d="M109.3,142v18.11a1.59,1.59,0,0,0,.27,1.07,1.37,1.37,0,0,0,.94.35l1.56.09v3.9h-7.74v-2.83l-.14,0a7.72,7.72,0,0,1-6.67,3.5c-3.31,0-5.77-1.05-7.36-3.16s-2.38-5-2.38-8.67q0-6.62,3.21-10.32t9.64-3.7A24.73,24.73,0,0,1,109.3,142Zm-5.65,15.78V145.21a9.1,9.1,0,0,0-3.75-.64,5,5,0,0,0-4.72,2.63,14.41,14.41,0,0,0-1.46,7q0,7.88,5.06,7.88a4.9,4.9,0,0,0,3.51-1.29A3.94,3.94,0,0,0,103.65,157.82Z" style="fill:#fff"/><path d="M114.75,145v-3.94H123v3.16a8.65,8.65,0,0,1,7.47-3.89q4.76,0,6.4,3.89a8.6,8.6,0,0,1,7.4-3.89,6.87,6.87,0,0,1,5.41,2.12c1.26,1.41,1.9,3.53,1.9,6.35v12.71l2.77.14v3.9H142.74v-3.7l1.61-.15a1.35,1.35,0,0,0,1.41-1.56V150.08a9.7,9.7,0,0,0-.61-4c-.4-.86-1.35-1.29-2.84-1.29a4.32,4.32,0,0,0-3.44,1.36,5.38,5.38,0,0,0-1.19,3.65v11.69l2.68.14v3.9H128.87v-3.7l1.61-.15a1.92,1.92,0,0,0,1.07-.41,1.65,1.65,0,0,0,.34-1.2v-10a9.87,9.87,0,0,0-.61-4c-.41-.86-1.36-1.29-2.87-1.29a4.22,4.22,0,0,0-3.44,1.41,5.31,5.31,0,0,0-1.16,3.51v11.78l2.62.14v3.9H114.94v-3.7l1.61-.15a1.86,1.86,0,0,0,1.07-.41,1.61,1.61,0,0,0,.34-1.2H118V146.67a1.85,1.85,0,0,0-.27-1.15,1.28,1.28,0,0,0-.94-.36Z" style="fill:#fff"/><path d="M177.41,165.56H157.54v-3.7l12.52-16.46h-6.14q-1,0-1.29.39a2.28,2.28,0,0,0-.27,1.27v1.7l-4.57-.34v-7.35h19.37v3.31l-12.65,16.8h6.91c.94,0,1.41-.56,1.41-1.66v-2l4.58.34Z" style="fill:#fff"/></g></g></svg>