<svg xmlns="http://www.w3.org/2000/svg" viewBox="0 0 64 64" role="img" aria-label="Vistamz">
  <rect width="64" height="64" rx="14" fill="#200628"/>
  <path
    d="M59.82 5.38H32.03l-.03-.06-.03.06H4.18l13.89 27.79L4.18 61h27.79l.03.06.03-.06h27.79L45.93 33.17 59.82 5.38Zm-4.47 2.8L44.4 30.05 33.45 8.18ZM24.72 26.1l10.8 21.66L32 54.8 21.19 33.17Zm.89-3.08L32 11.53l10.8 21.64-5.75 11.48ZM8.65 8.18h21.9l-5.83 11.74-5.12 10.14Zm0 50.02L19.6 36.34 30.55 58.2Zm24.8 0 3.6-7.21 3.61 7.21Zm21.9 0H43.88l-5.18-10.43 5.7-11.43Z"
    fill="#fff"
  />
</svg>
